
<svg width="302px" height="122px" viewBox="0 0 302 122" version="1.1" xmlns="http://www.w3.org/2000/svg" xmlns:xlink="http://www.w3.org/1999/xlink">
    <g id="Page-1" stroke="none" stroke-width="1" fill="none" fill-rule="evenodd">
        <g id="Desktop-HD-Copy" transform="translate(-794.000000, -790.000000)" fill="#FFFFFF">
            <g id="Logo" transform="translate(791.000000, 768.000000)">
                <g id="Group">
                    <path d="M66.1835938,112.013672 L50.265625,112.013672 L41.8671875,99.4160156 C41.4114561,99.4811201 40.9801453,99.5136719 40.5732422,99.5136719 L39.3769531,99.5136719 C36.056624,99.5136719 32.8584138,99.0823611 29.7822266,98.2197266 C26.7060393,97.357092 23.8252087,96.1364011 21.1396484,94.5576172 C18.4540881,92.9788333 16.0045684,91.0826934 13.7910156,88.8691406 C11.5774629,86.6555879 9.681323,84.2060681 8.10253906,81.5205078 C6.52375513,78.8349475 5.30306421,75.9541169 4.44042969,72.8779297 C3.57779517,69.8017424 3.14648438,66.6035322 3.14648438,63.2832031 C3.14648438,59.962874 3.57779517,56.7565259 4.44042969,53.6640625 C5.30306421,50.5715991 6.52375513,47.6907686 8.10253906,45.0214844 C9.681323,42.3522002 11.5774629,39.9108184 13.7910156,37.6972656 C16.0045684,35.4837129 18.4540881,33.5957109 21.1396484,32.0332031 C23.8252087,30.4706953 26.7060393,29.2581423 29.7822266,28.3955078 C32.8584138,27.5328733 36.056624,27.1015625 39.3769531,27.1015625 C42.6972822,27.1015625 45.9036304,27.5328733 48.9960938,28.3955078 C52.0885571,29.2581423 54.9693877,30.4706953 57.6386719,32.0332031 C60.3079561,33.5957109 62.7493379,35.4837129 64.9628906,37.6972656 C67.1764434,39.9108184 69.0644453,42.3522002 70.6269531,45.0214844 C72.1894609,47.6907686 73.4020139,50.5715991 74.2646484,53.6640625 C75.127283,56.7565259 75.5585938,59.962874 75.5585938,63.2832031 C75.5585938,66.7337412 75.0784553,70.0865723 74.1181641,73.3417969 C73.1578728,76.5970215 71.7988369,79.6324729 70.0410156,82.4482422 C68.2831943,85.2640115 66.1591921,87.8111865 63.6689453,90.0898438 C61.1786985,92.368501 58.4036611,94.2727788 55.34375,95.8027344 L66.1835938,112.013672 Z M61.6425781,63.2832031 C61.6425781,60.223292 61.0566465,57.3343235 59.8847656,54.6162109 C58.7128848,51.8980984 57.1259866,49.5380959 55.1240234,47.5361328 C53.1220603,45.5341697 50.7620579,43.9472715 48.0439453,42.7753906 C45.3258328,41.6035098 42.4368643,41.0175781 39.3769531,41.0175781 C36.2844897,41.0175781 33.3873833,41.6035098 30.6855469,42.7753906 C27.9837104,43.9472715 25.623708,45.5341697 23.6054688,47.5361328 C21.5872295,49.5380959 19.9921934,51.8980984 18.8203125,54.6162109 C17.6484316,57.3343235 17.0625,60.223292 17.0625,63.2832031 C17.0625,66.3431143 17.6484316,69.2158069 18.8203125,71.9013672 C19.9921934,74.5869275 21.5872295,76.938792 23.6054688,78.9570312 C25.623708,80.9752705 27.9837104,82.5703066 30.6855469,83.7421875 C33.3873833,84.9140684 36.2844897,85.5 39.3769531,85.5 C42.4368643,85.5 45.3258328,84.9140684 48.0439453,83.7421875 C50.7620579,82.5703066 53.1220603,80.9752705 55.1240234,78.9570312 C57.1259866,76.938792 58.7128848,74.5869275 59.8847656,71.9013672 C61.0566465,69.2158069 61.6425781,66.3431143 61.6425781,63.2832031 Z M121.75,91.8964844 C120.675776,92.8730518 119.528326,93.7926389 118.307617,94.6552734 C117.086908,95.517908 115.809251,96.2665984 114.474609,96.9013672 C113.139967,97.536136 111.764656,98.0406882 110.348633,98.4150391 C108.93261,98.7893899 107.492195,98.9765625 106.027344,98.9765625 C102.804671,98.9765625 99.7773579,98.4069067 96.9453125,97.2675781 C94.1132671,96.1282495 91.6311956,94.5087996 89.4990234,92.4091797 C87.3668513,90.3095598 85.6904358,87.7542468 84.4697266,84.7431641 C83.2490173,81.7320813 82.6386719,78.3548364 82.6386719,74.6113281 L82.6386719,45.7050781 L95.9199219,45.7050781 L95.9199219,74.6113281 C95.9199219,76.3691494 96.1884739,77.9397717 96.7255859,79.3232422 C97.262698,80.7067126 97.9869746,81.870438 98.8984375,82.8144531 C99.8099004,83.7584683 100.87597,84.4746069 102.09668,84.9628906 C103.317389,85.4511743 104.627597,85.6953125 106.027344,85.6953125 C107.394538,85.6953125 108.68847,85.3779329 109.90918,84.7431641 C111.129889,84.1083953 112.195959,83.2701875 113.107422,82.2285156 C114.018885,81.1868438 114.735023,80.0068425 115.255859,78.6884766 C115.776695,77.3701106 116.037109,76.0110747 116.037109,74.6113281 L116.037109,45.7050781 L129.367188,45.7050781 L129.367188,98 L126.144531,98 L121.75,91.8964844 Z M155.246094,31.4960938 C155.246094,32.7330791 155.010094,33.8886665 154.538086,34.9628906 C154.066078,36.0371147 153.423181,36.9729778 152.609375,37.7705078 C151.795569,38.5680378 150.84343,39.2027971 149.75293,39.6748047 C148.662429,40.1468123 147.498704,40.3828125 146.261719,40.3828125 C145.024733,40.3828125 143.861008,40.1468123 142.770508,39.6748047 C141.680008,39.2027971 140.736007,38.5680378 139.938477,37.7705078 C139.140947,36.9729778 138.506187,36.0371147 138.03418,34.9628906 C137.562172,33.8886665 137.326172,32.7330791 137.326172,31.4960938 C137.326172,30.2916606 137.562172,29.1442112 138.03418,28.0537109 C138.506187,26.9632107 139.140947,26.0192097 139.938477,25.2216797 C140.736007,24.4241497 141.680008,23.7893904 142.770508,23.3173828 C143.861008,22.8453752 145.024733,22.609375 146.261719,22.609375 C147.498704,22.609375 148.662429,22.8453752 149.75293,23.3173828 C150.84343,23.7893904 151.795569,24.4241497 152.609375,25.2216797 C153.423181,26.0192097 154.066078,26.9632107 154.538086,28.0537109 C155.010094,29.1442112 155.246094,30.2916606 155.246094,31.4960938 Z M152.951172,98 L139.523438,98 L139.523438,45.7050781 L152.951172,45.7050781 L152.951172,98 Z M208.810547,56.1054688 L199.044922,65.9199219 C198.556638,64.5527275 197.889327,63.3238987 197.042969,62.2333984 C196.19661,61.1428982 195.244471,60.223311 194.186523,59.4746094 C193.128575,58.7259077 191.981126,58.156252 190.744141,57.765625 C189.507155,57.374998 188.237637,57.1796875 186.935547,57.1796875 C185.112621,57.1796875 183.395516,57.5540327 181.78418,58.3027344 C180.172844,59.051436 178.773118,60.1012302 177.584961,61.4521484 C176.396804,62.8030667 175.460941,64.4062407 174.777344,66.2617188 C174.093747,68.1171968 173.751953,70.1679575 173.751953,72.4140625 C173.751953,74.2369883 174.093747,75.9459556 174.777344,77.5410156 C175.460941,79.1360757 176.396804,80.5358013 177.584961,81.7402344 C178.773118,82.9446675 180.172844,83.8886685 181.78418,84.5722656 C183.395516,85.2558628 185.112621,85.5976562 186.935547,85.5976562 C188.237637,85.5976562 189.490879,85.4186216 190.695312,85.0605469 C191.899746,84.7024722 193.030919,84.189782 194.088867,83.5224609 C195.146815,82.8551399 196.090816,82.0413459 196.920898,81.0810547 C197.750981,80.1207634 198.42643,79.0546934 198.947266,77.8828125 L208.712891,87.6972656 C207.475905,89.4550869 206.051766,91.0338472 204.44043,92.4335938 C202.829094,93.8333403 201.087574,95.0214795 199.21582,95.9980469 C197.344066,96.9746143 195.374685,97.7151667 193.307617,98.2197266 C191.24055,98.7242864 189.116547,98.9765625 186.935547,98.9765625 C183.257143,98.9765625 179.798519,98.2848376 176.55957,96.9013672 C173.320622,95.5178967 170.488619,93.6217568 168.063477,91.2128906 C165.638334,88.8040244 163.725918,85.9882974 162.326172,82.765625 C160.926425,79.5429526 160.226562,76.0924663 160.226562,72.4140625 C160.226562,68.4101362 160.926425,64.6666841 162.326172,61.1835938 C163.725918,57.7005034 165.638334,54.665052 168.063477,52.0771484 C170.488619,49.4892449 173.320622,47.4466221 176.55957,45.9492188 C179.798519,44.4518154 183.257143,43.703125 186.935547,43.703125 C189.116547,43.703125 191.256825,43.9798149 193.356445,44.5332031 C195.456065,45.0865913 197.457998,45.8922473 199.362305,46.9501953 C201.266611,48.0081433 203.024406,49.3020757 204.635742,50.8320312 C206.247078,52.3619868 207.638666,54.1197817 208.810547,56.1054688 Z M228.732422,98 L215.304688,98 L215.304688,24.9042969 L228.732422,24.9042969 L228.732422,70.9980469 L248.605469,45.8027344 L263.9375,45.8027344 L246.603516,67.5800781 L263.9375,98 L248.605469,98 L238.009766,79.0058594 L228.732422,91.3105469 L228.732422,98 Z M282.541016,98 L269.210938,98 L269.210938,45.7050781 L272.433594,45.7050781 L276.828125,51.90625 C278.976573,49.9531152 281.417955,48.4475964 284.152344,47.3896484 C286.886732,46.3317004 289.718735,45.8027344 292.648438,45.8027344 L304.416016,45.8027344 L304.416016,59.0839844 L292.648438,59.0839844 C291.248691,59.0839844 289.930345,59.3443984 288.693359,59.8652344 C287.456374,60.3860703 286.382166,61.102209 285.470703,62.0136719 C284.55924,62.9251348 283.843102,63.9993428 283.322266,65.2363281 C282.80143,66.4733135 282.541016,67.7916597 282.541016,69.1914062 L282.541016,98 Z" id="Quickr" fill-rule="nonzero"></path>
                    <path d="M78.9155273,139.509766 C78.9155273,140.095706 78.8097341,140.645017 78.5981445,141.157715 C78.3865549,141.670413 78.0935891,142.11393 77.7192383,142.488281 C77.3448875,142.862632 76.9054387,143.159667 76.4008789,143.379395 C75.8963191,143.599122 75.3510771,143.708984 74.7651367,143.708984 C74.1954724,143.708984 73.6542994,143.599122 73.1416016,143.379395 C72.6289037,143.159667 72.181317,142.862632 71.7988281,142.488281 C71.4163392,142.11393 71.1152355,141.670413 70.8955078,141.157715 C70.6757802,140.645017 70.565918,140.095706 70.565918,139.509766 C70.565918,138.940101 70.6757802,138.402997 70.8955078,137.898438 C71.1152355,137.393878 71.4163392,136.954429 71.7988281,136.580078 C72.181317,136.205727 72.6289037,135.908693 73.1416016,135.688965 C73.6542994,135.469237 74.1954724,135.359375 74.7651367,135.359375 C75.3510771,135.359375 75.8963191,135.469237 76.4008789,135.688965 C76.9054387,135.908693 77.3448875,136.205727 77.7192383,136.580078 C78.0935891,136.954429 78.3865549,137.393878 78.5981445,137.898438 C78.8097341,138.402997 78.9155273,138.940101 78.9155273,139.509766 Z M106.723145,121.052734 L101.840332,125.959961 C101.59619,125.276364 101.262535,124.661949 100.839355,124.116699 C100.416176,123.571449 99.9401068,123.111656 99.4111328,122.737305 C98.8821588,122.362954 98.3084341,122.078126 97.6899414,121.882812 C97.0714487,121.687499 96.4366895,121.589844 95.7856445,121.589844 C94.8741816,121.589844 94.015629,121.777016 93.2099609,122.151367 C92.4042928,122.525718 91.7044301,123.050615 91.1103516,123.726074 C90.5162731,124.401533 90.0483416,125.20312 89.706543,126.130859 C89.3647444,127.058598 89.1938477,128.083979 89.1938477,129.207031 C89.1938477,130.118494 89.3647444,130.972978 89.706543,131.770508 C90.0483416,132.568038 90.5162731,133.267901 91.1103516,133.870117 C91.7044301,134.472334 92.4042928,134.944334 93.2099609,135.286133 C94.015629,135.627931 94.8741816,135.798828 95.7856445,135.798828 C96.4366895,135.798828 97.0633108,135.709311 97.6655273,135.530273 C98.2677439,135.351236 98.8333307,135.094891 99.3623047,134.76123 C99.8912787,134.42757 100.363279,134.020673 100.77832,133.540527 C101.193361,133.060382 101.531086,132.527347 101.791504,131.941406 L106.674316,136.848633 C106.055824,137.727543 105.343754,138.516924 104.538086,139.216797 C103.732418,139.91667 102.861658,140.51074 101.925781,140.999023 C100.989904,141.487307 100.005214,141.857583 98.9716797,142.109863 C97.9381459,142.362143 96.8761448,142.488281 95.7856445,142.488281 C93.9464426,142.488281 92.2171305,142.142419 90.5976562,141.450684 C88.978182,140.758948 87.5621805,139.810878 86.3496094,138.606445 C85.1370382,137.402012 84.1808303,135.994149 83.480957,134.382812 C82.7810837,132.771476 82.4311523,131.046233 82.4311523,129.207031 C82.4311523,127.205068 82.7810837,125.333342 83.480957,123.591797 C84.1808303,121.850252 85.1370382,120.332526 86.3496094,119.038574 C87.5621805,117.744622 88.978182,116.723311 90.5976562,115.974609 C92.2171305,115.225908 93.9464426,114.851562 95.7856445,114.851562 C96.8761448,114.851562 97.9462838,114.989907 98.9960938,115.266602 C100.045904,115.543296 101.04687,115.946124 101.999023,116.475098 C102.951177,117.004072 103.830074,117.651038 104.635742,118.416016 C105.44141,119.180993 106.137204,120.059891 106.723145,121.052734 Z M116.635254,142 L109.970215,142 L109.970215,105.452148 L116.635254,105.452148 L116.635254,117 C117.432784,116.397783 118.254716,115.970542 119.101074,115.718262 C119.947433,115.465982 120.810054,115.339844 121.688965,115.339844 C123.300301,115.339844 124.813958,115.645016 126.22998,116.255371 C127.646003,116.865726 128.878901,117.703933 129.928711,118.77002 C130.978521,119.836106 131.808591,121.08121 132.418945,122.505371 C133.0293,123.929532 133.334473,125.447258 133.334473,127.058594 L133.334473,142 L126.620605,142 L126.620605,127.058594 L126.669434,127.058594 C126.669434,126.374997 126.539227,125.72803 126.278809,125.117676 C126.018391,124.507321 125.660321,123.974286 125.20459,123.518555 C124.748858,123.062823 124.219892,122.704754 123.617676,122.444336 C123.015459,122.183918 122.372562,122.053711 121.688965,122.053711 C120.989092,122.053711 120.329918,122.183918 119.711426,122.444336 C119.092933,122.704754 118.555829,123.062823 118.100098,123.518555 C117.644366,123.974286 117.286297,124.507321 117.025879,125.117676 C116.765461,125.72803 116.635254,126.374997 116.635254,127.058594 L116.635254,142 Z M163.388184,142 L161.776855,142 L159.188965,138.411133 C158.554196,138.980797 157.882816,139.513832 157.174805,140.010254 C156.466793,140.506676 155.722172,140.937986 154.940918,141.304199 C154.159664,141.670412 153.358077,141.959309 152.536133,142.170898 C151.714189,142.382488 150.88005,142.488281 150.033691,142.488281 C148.19449,142.488281 146.465177,142.17904 144.845703,141.560547 C143.226229,140.942054 141.810227,140.042812 140.597656,138.862793 C139.385085,137.682774 138.428877,136.23829 137.729004,134.529297 C137.029131,132.820304 136.679199,130.875336 136.679199,128.694336 C136.679199,126.659821 137.029131,124.792163 137.729004,123.091309 C138.428877,121.390454 139.385085,119.929694 140.597656,118.708984 C141.810227,117.488275 143.226229,116.540205 144.845703,115.864746 C146.465177,115.189287 148.19449,114.851562 150.033691,114.851562 C150.88005,114.851562 151.718258,114.957356 152.54834,115.168945 C153.378422,115.380535 154.184078,115.673501 154.965332,116.047852 C155.746586,116.422202 156.491207,116.861651 157.199219,117.366211 C157.90723,117.870771 158.570472,118.416013 159.188965,119.001953 L161.776855,115.901367 L163.388184,115.901367 L163.388184,142 Z M156.674316,128.694336 C156.674316,127.782873 156.499351,126.899907 156.149414,126.04541 C155.799477,125.190914 155.323408,124.434085 154.721191,123.774902 C154.118975,123.115719 153.415043,122.586753 152.609375,122.187988 C151.803707,121.789223 150.945154,121.589844 150.033691,121.589844 C149.122229,121.589844 148.263676,121.744465 147.458008,122.053711 C146.65234,122.362957 145.952477,122.818682 145.358398,123.420898 C144.76432,124.023115 144.296388,124.767736 143.95459,125.654785 C143.612791,126.541834 143.441895,127.555007 143.441895,128.694336 C143.441895,129.833665 143.612791,130.846838 143.95459,131.733887 C144.296388,132.620935 144.76432,133.365557 145.358398,133.967773 C145.952477,134.56999 146.65234,135.025715 147.458008,135.334961 C148.263676,135.644207 149.122229,135.798828 150.033691,135.798828 C150.945154,135.798828 151.803707,135.599449 152.609375,135.200684 C153.415043,134.801919 154.118975,134.272953 154.721191,133.61377 C155.323408,132.954587 155.799477,132.197758 156.149414,131.343262 C156.499351,130.488765 156.674316,129.605799 156.674316,128.694336 Z M181.57666,142 C179.965324,142 178.451667,141.694827 177.035645,141.084473 C175.619622,140.474118 174.378586,139.63591 173.3125,138.569824 C172.246414,137.503738 171.408206,136.262702 170.797852,134.84668 C170.187497,133.430657 169.882324,131.917 169.882324,130.305664 L169.882324,122.541992 L166.635254,122.541992 L166.635254,115.901367 L169.882324,115.901367 L169.882324,105.452148 L176.522949,105.452148 L176.522949,115.901367 L186.630371,115.901367 L186.630371,122.541992 L176.522949,122.541992 L176.522949,130.305664 C176.522949,131.005537 176.653156,131.660641 176.913574,132.270996 C177.173992,132.881351 177.532062,133.414386 177.987793,133.870117 C178.443524,134.325849 178.980628,134.687987 179.599121,134.956543 C180.217614,135.225099 180.876787,135.359375 181.57666,135.359375 L186.630371,135.359375 L186.630371,142 L181.57666,142 Z" id=".chat" fill-rule="nonzero"></path>
                    <circle id="Oval" cx="26.5" cy="63.5" r="4.5"></circle>
                    <circle id="Oval" cx="39.5" cy="63.5" r="4.5"></circle>
                    <circle id="Oval" cx="52.5" cy="63.5" r="4.5"></circle>
                </g>
            </g>
        </g>
    </g>
</svg>